<svg width="17" height="16" viewBox="0 0 17 16" fill="none" xmlns="http://www.w3.org/2000/svg">
<path d="M5.62928 0.17327C8.72546 -0.600822 9.08018 1.80646 8.31396 3.77766C7.53866 6.63514 10.4586 6.58204 10.6754 4.97078C11.1027 2.78862 12.974 1.80693 14.4289 3.03194C15.922 4.47016 15.2673 7.36746 12.3161 7.08373C10.4162 6.90065 9.99882 9.40491 12.4155 9.59431C16.2351 9.82122 17.4515 12.2215 16.0945 13.845C14.1989 15.6405 11.6273 13.3189 10.7003 11.5333C9.89441 10.4302 8.64746 11.5464 9.10945 12.3039C10.6482 14.6108 9.45587 16.0051 7.81688 15.933C6.23241 15.8323 5.33274 14.8592 6.25078 12.4782C6.71265 10.9988 5.23211 10.6546 4.28705 11.8323C2.89943 14.1564 0.865893 13.4536 0.260144 12.3289C-0.124164 11.4255 -0.0860484 9.26551 3.11869 9.52033C5.09653 10.0106 4.51437 8.03162 3.04414 7.90456C1.94832 7.85206 -0.570907 7.03891 0.334693 4.99624C1.20474 3.68578 3.29268 3.60139 4.28705 5.74196C4.647 6.2436 5.27803 7.05064 6.42477 6.33853C6.84077 5.72248 6.56827 4.69101 5.38075 3.95216C3.76806 3.0112 3.9206 0.964618 5.62928 0.17327Z" fill="white"/>
</svg>
